<svg width="281" height="348" viewBox="0 0 281 348" fill="none" xmlns="http://www.w3.org/2000/svg">
<g filter="url(#filter0_i_30_407)">
<path d="M22.7858 73.3003V17.9746H37.4694V143.31H22.7858V87.9839H17.629V143.31H2.94545V17.9746H17.629V73.3003H22.7858ZM59.2745 17.9746V143.31H44.5909V17.9746H59.2745ZM89.7744 17.9746H124.298V32.6582H114.247V143.31H99.5635V32.6582H89.7744V17.9746ZM151.26 73.3003V17.9746H165.944V143.31H151.26V87.9839H146.104V143.31H131.42V17.9746H146.104V73.3003H151.26ZM199.898 17.9746V32.6582H187.749V73.3003H199.898V87.9839H187.749V128.626H199.898V143.31H173.065V17.9746H199.898ZM241.543 75.835C241.543 77.5247 241.135 79.1854 240.32 80.8169C239.562 82.3901 238.659 83.4681 237.61 84.0508C238.601 84.6335 239.475 85.7114 240.232 87.2847C241.048 88.8579 241.485 90.5186 241.543 92.2666L244.165 143.31H229.482L226.86 94.1021C226.802 93.3446 226.51 92.7036 225.986 92.1792C225.52 91.6548 224.908 91.3926 224.15 91.3926H221.703V143.31H207.019V17.9746H224.15C229.628 17.9746 233.881 19.0526 236.911 21.2085C239.999 23.3644 241.543 26.6566 241.543 31.085V75.835ZM224.15 76.709C224.908 76.709 225.549 76.4468 226.073 75.9224C226.598 75.3979 226.86 74.757 226.86 73.9995V35.1929C226.86 34.4937 226.598 33.911 226.073 33.4448C225.549 32.9204 224.908 32.6582 224.15 32.6582H221.703V76.709H224.15ZM277.245 17.9746V32.6582H265.097V73.3003H277.245V87.9839H265.097V128.626H277.245V143.31H250.413V17.9746H277.245Z" fill="#BFF2B5"/>
</g>
<g filter="url(#filter1_i_30_407)">
<path d="M21.9127 181.808V310.31H6.85817V181.808H21.9127ZM38.2649 181.808C40.8934 181.808 43.1337 182.734 44.9857 184.586C46.8973 186.498 47.7934 188.708 47.674 191.217L46.509 217.115H38.4441L38.2649 200.357C35.8752 200.357 33.7545 199.431 31.9025 197.58C30.0506 195.728 29.1246 193.607 29.1246 191.217C29.1246 188.648 30.0207 186.438 31.8129 184.586C33.6649 182.734 35.8155 181.808 38.2649 181.808ZM93.1495 180.554C98.4664 180.554 102.708 181.778 105.874 184.228C109.1 186.677 110.713 190.172 110.713 194.712V310.31H95.6586V198.207C95.6586 197.49 95.4196 196.863 94.9417 196.325C94.4638 195.728 93.8664 195.429 93.1495 195.429C92.3729 195.429 91.7157 195.728 91.1781 196.325C90.6404 196.863 90.3716 197.49 90.3716 198.207V310.31H75.317V198.207C75.317 197.49 75.0482 196.863 74.5105 196.325C73.9729 195.728 73.3157 195.429 72.5391 195.429C71.8222 195.429 71.2248 195.728 70.7469 196.325C70.269 196.863 70.03 197.49 70.03 198.207V310.31H54.9754V181.808H64.2949C66.804 180.972 69.5521 180.554 72.5391 180.554C76.4222 180.554 79.8573 181.599 82.8443 183.69C85.8313 181.599 89.2664 180.554 93.1495 180.554ZM177.559 234.499H162.504V198.207C162.504 197.49 162.236 196.863 161.698 196.325C161.16 195.728 160.503 195.429 159.727 195.429C159.01 195.429 158.412 195.728 157.934 196.325C157.456 196.863 157.217 197.49 157.217 198.207V235.037L172.451 246.059C175.856 248.269 177.559 251.346 177.559 255.289V297.495C177.559 302.036 175.946 305.53 172.72 307.98C169.494 310.369 165.163 311.564 159.727 311.564C154.35 311.564 150.078 310.369 146.912 307.98C143.746 305.53 142.163 302.036 142.163 297.495V257.619H157.217V294C157.217 294.717 157.456 295.345 157.934 295.882C158.412 296.42 159.01 296.689 159.727 296.689C160.503 296.689 161.16 296.42 161.698 295.882C162.236 295.345 162.504 294.717 162.504 294V257.081L147.091 246.059C143.806 243.848 142.163 240.802 142.163 236.919V194.712C142.163 190.172 143.746 186.677 146.912 184.228C150.138 181.778 154.41 180.554 159.727 180.554C165.103 180.554 169.404 181.778 172.63 184.228C175.916 186.677 177.559 190.172 177.559 194.712V234.499ZM212.371 181.808V196.863H199.915V238.532H212.371V253.586H199.915V295.255H212.371V310.31H184.86V181.808H212.371ZM240.014 181.808H255.069V272.404C255.069 279.215 251.633 283.636 244.763 285.667V310.31H229.709V285.398C223.018 283.426 219.672 279.095 219.672 272.404V181.808H234.727V268.91C234.727 269.626 234.966 270.254 235.444 270.791C235.922 271.269 236.519 271.508 237.236 271.508C238.013 271.508 238.67 271.269 239.207 270.791C239.745 270.254 240.014 269.626 240.014 268.91V181.808ZM277.425 181.808V310.31H262.37V181.808H277.425Z" fill="#BFF2B5"/>
</g>
<defs>
<filter id="filter0_i_30_407" x="0.584657" y="17.9746" width="276.66" height="130.056" filterUnits="userSpaceOnUse" color-interpolation-filters="sRGB">
<feFlood flood-opacity="0" result="BackgroundImageFix"/>
<feBlend mode="normal" in="SourceGraphic" in2="BackgroundImageFix" result="shape"/>
<feColorMatrix in="SourceAlpha" type="matrix" values="0 0 0 0 0 0 0 0 0 0 0 0 0 0 0 0 0 0 127 0" result="hardAlpha"/>
<feOffset dx="-2.36066" dy="7.08197"/>
<feGaussianBlur stdDeviation="2.36066"/>
<feComposite in2="hardAlpha" operator="arithmetic" k2="-1" k3="1"/>
<feColorMatrix type="matrix" values="0 0 0 0 0.454902 0 0 0 0 0.85098 0 0 0 0 0.376471 0 0 0 1 0"/>
<feBlend mode="normal" in2="shape" result="effect1_innerShadow_30_407"/>
</filter>
<filter id="filter1_i_30_407" x="4.4381" y="180.554" width="272.987" height="135.851" filterUnits="userSpaceOnUse" color-interpolation-filters="sRGB">
<feFlood flood-opacity="0" result="BackgroundImageFix"/>
<feBlend mode="normal" in="SourceGraphic" in2="BackgroundImageFix" result="shape"/>
<feColorMatrix in="SourceAlpha" type="matrix" values="0 0 0 0 0 0 0 0 0 0 0 0 0 0 0 0 0 0 127 0" result="hardAlpha"/>
<feOffset dx="-2.4203" dy="7.26089"/>
<feGaussianBlur stdDeviation="2.4203"/>
<feComposite in2="hardAlpha" operator="arithmetic" k2="-1" k3="1"/>
<feColorMatrix type="matrix" values="0 0 0 0 0.454902 0 0 0 0 0.85098 0 0 0 0 0.376471 0 0 0 1 0"/>
<feBlend mode="normal" in2="shape" result="effect1_innerShadow_30_407"/>
</filter>
</defs>
</svg>
